<svg xmlns="http://www.w3.org/2000/svg" viewBox="0 0 64 63.67"><g id="Layer_2" data-name="Layer 2"><g id="Layer_1-2" data-name="Layer 1"><g id="uqscZr"><path d="M32.44,0A32.14,32.14,0,0,0,0,31.62C-.17,49,14.34,63.51,32.05,63.67A31.84,31.84,0,0,0,32.44,0ZM31.9,61.9a29.8,29.8,0,0,1-30-30.13A30.13,30.13,0,0,1,32.13,1.59C49,1.67,62.73,15.35,62.64,32S48.8,62,31.9,61.9Z"/><path d="M28.52,49.38h6.7V23.61h-6.7Z"/><path d="M31.92,13.32a3.61,3.61,0,1,0,3.71,3.57A3.6,3.6,0,0,0,31.92,13.32Z"/></g></g></g></svg>