<svg width="473" height="323" viewBox="0 0 473 323" fill="none" xmlns="http://www.w3.org/2000/svg">
<g style="mix-blend-mode:multiply">
<path fill-rule="evenodd" clip-rule="evenodd" d="M258.109 52.038H170.926C168.737 52.0476 166.559 52.3656 164.451 52.9833L130.593 -8.16184C135.292 -10.1046 140.301 -11.1104 145.357 -11.1267H283.678C290.832 -11.0908 297.851 -9.08459 304.022 -5.31153C310.192 -1.53848 315.296 3.86731 318.815 10.3579L387.975 134.969C390.489 139.561 392.154 144.604 392.883 149.836H325.125C324.587 147.634 323.754 145.522 322.65 143.562L279.059 64.6709C276.938 60.8348 273.885 57.6479 270.208 55.4304C266.53 53.2128 262.358 52.0429 258.109 52.038ZM148.864 150.609H208.663C209.567 150.602 210.453 150.344 211.228 149.86C212.004 149.377 212.642 148.686 213.076 147.859L243.429 93.7181C243.877 92.9093 244.113 91.992 244.114 91.0582C244.115 90.1243 243.88 89.2066 243.433 88.3971C242.986 87.5876 242.342 86.9147 241.567 86.4459C240.792 85.9771 239.912 85.7288 239.016 85.7258H178.928C178.032 85.7199 177.15 85.9638 176.374 86.4322C175.598 86.9006 174.957 87.5765 174.516 88.3899L144.451 142.66C144 143.466 143.761 144.381 143.76 145.314C143.758 146.246 143.993 147.163 144.441 147.97C144.889 148.778 145.535 149.447 146.311 149.911C147.088 150.374 147.969 150.615 148.864 150.609ZM261.161 212.919L291.267 158.606C291.712 157.795 291.946 156.877 291.946 155.942C291.946 155.008 291.712 154.09 291.267 153.278L261.161 98.9651C260.719 98.152 260.077 97.4756 259.302 97.0051C258.527 96.5345 257.646 96.2866 256.749 96.2866C255.852 96.2866 254.97 96.5345 254.195 97.0051C253.42 97.4756 252.778 98.152 252.336 98.9651L221.942 153.278C221.477 154.09 221.231 155.018 221.231 155.964C221.231 156.909 221.477 157.837 221.942 158.649L252.212 212.962C252.649 213.805 253.297 214.508 254.087 214.997C254.877 215.485 255.78 215.741 256.699 215.737C257.618 215.732 258.519 215.468 259.305 214.972C260.091 214.475 260.732 213.766 261.161 212.919ZM387.688 230.702L365.583 217.425L387.976 177.077C390.485 172.497 392.15 167.469 392.884 162.252H325.126C324.581 164.466 323.749 166.591 322.651 168.569L279.06 247.202C277.947 249.195 276.557 251.005 274.936 252.574L308.959 313.719C312.918 310.448 316.26 306.442 318.816 301.902L340.673 262.414L362.737 275.691C364.521 276.769 366.491 277.47 368.535 277.754C370.58 278.037 372.657 277.898 374.65 277.343C376.642 276.788 378.509 275.829 380.145 274.52C381.781 273.212 383.153 271.58 384.182 269.718L393.461 253.003C394.488 251.144 395.154 249.092 395.419 246.965C395.685 244.838 395.545 242.677 395.009 240.606C394.473 238.535 393.551 236.595 392.294 234.895C391.038 233.196 389.473 231.771 387.688 230.702ZM174.515 223.61L144.45 169.34C143.981 168.529 143.728 167.603 143.717 166.656C143.705 165.71 143.936 164.777 144.386 163.954C144.835 163.132 145.487 162.448 146.274 161.975C147.061 161.502 147.954 161.256 148.863 161.262H208.662C209.554 161.256 210.431 161.495 211.206 161.955C211.981 162.416 212.625 163.08 213.075 163.883L243.428 218.239C243.886 219.049 244.131 219.971 244.137 220.911C244.143 221.851 243.91 222.776 243.462 223.592C243.014 224.408 242.366 225.086 241.585 225.557C240.804 226.028 239.917 226.276 239.015 226.274H178.927C178.032 226.271 177.154 226.024 176.38 225.556C175.605 225.089 174.962 224.418 174.515 223.61ZM258.111 259.835H170.928C166.673 259.834 162.493 258.665 158.808 256.448C155.124 254.23 152.064 251.042 149.936 247.202L106.386 168.569C105.289 166.591 104.456 164.466 103.912 162.252H36.1535C36.8878 167.469 38.5523 172.497 41.0611 177.077L110.222 301.902C113.785 308.324 118.908 313.654 125.076 317.358C131.244 321.062 138.24 323.008 145.359 323H283.68C288.733 322.994 293.741 322.003 298.444 320.078L264.585 258.89C262.479 259.511 260.3 259.829 258.111 259.835ZM149.936 64.6718L106.386 143.563C105.228 145.5 104.34 147.597 103.747 149.794H36.1535C36.8878 144.577 38.5523 139.549 41.0611 134.969L110.387 10.015C112.916 5.44313 116.262 1.41763 120.243 -1.84452L154.06 59.3006C152.47 60.8991 151.084 62.7043 149.936 64.6718ZM126.143 154.007H30.2994V157.878H126.143V154.007ZM394.121 154.007H472.354V157.878H394.121V154.007ZM390.079 154.007H373.871V157.878H390.079V154.007ZM338.199 154.007H346.282V157.878H338.199V154.007ZM29.0213 154.007H12.8137V157.878H29.0213V154.007ZM0.644714 154.007H8.72788V157.878H0.644714V154.007Z" fill="#DFE7FA"/>
</g>
</svg>
